<?xml version="1.0" encoding="UTF-8"?>
<svg id="Layer_1" xmlns="http://www.w3.org/2000/svg" version="1.1" viewBox="0 0 900 300">
  <!-- Generator: Adobe Illustrator 29.7.1, SVG Export Plug-In . SVG Version: 2.1.1 Build 8)  -->
  <defs>
    <style>
      .st0 {
        fill: #bf5b20;
      }

      .st1 {
        fill: #ac3d37;
      }

      .st2 {
        fill: #eac4b0;
      }
    </style>
  </defs>
  <g>
    <g>
      <path class="st1" d="M54.005,260.236v.26c0,5.721-4.55,9.62-10.53,9.62h-18.721c-14.69,0-23.011-7.28-23.011-22.36V82.13c0-5.98,4.55-9.881,10.53-9.881s10.53,3.9,10.53,9.881v165.626c0,1.907.65,2.86,1.95,2.86h18.721c5.98,0,10.53,3.899,10.53,9.62h0Z"/>
      <path class="st1" d="M103.793,221.495c5.98,0,10.53,3.899,10.53,9.88v12.74c0,19.891-10.4,28.602-29.251,28.602-18.98,0-29.251-8.711-29.251-28.602V99.03c0-19.891,10.271-28.601,29.251-28.601,18.851,0,29.251,8.71,29.251,28.601v36.921c0,5.98-4.55,9.88-10.53,9.88s-10.53-3.9-10.53-9.88v-36.921c0-8.45-.65-9.101-8.19-9.101s-8.19.65-8.19,9.101v145.085c0,8.45.65,9.101,8.19,9.101s8.19-.65,8.19-9.101v-12.74c0-5.98,4.55-9.88,10.53-9.88Z"/>
      <path class="st1" d="M124.461,262.316V99.03c0-5.2.65-9.23,1.95-12.871-1.82-1.95-2.73-4.03-2.73-6.5,0-5.331,5.2-10.141,10.791-10.141,3.64,0,5.33,1.3,6.76,2.6,3.77-1.17,7.93-1.69,12.48-1.69,18.851,0,29.251,8.71,29.251,28.601v12.74c0,5.851-4.68,9.881-10.53,9.881s-10.53-4.03-10.53-9.881v-12.74c0-8.45-.65-9.101-8.19-9.101s-8.19.65-8.19,9.101v36.271h22.751c5.85,0,10.4,3.9,10.4,9.75s-4.55,9.75-10.4,9.75h-22.751v107.514c0,5.85-4.68,9.88-10.53,9.88s-10.53-4.03-10.53-9.88l-.002.002h0Z"/>
      <path class="st1" d="M201.549,72.249c5.98,0,10.53,3.9,10.53,9.881v178.366c0,5.98-4.55,9.881-10.53,9.881s-10.53-3.9-10.53-9.881V82.13c0-5.98,4.55-9.881,10.53-9.881Z"/>
    </g>
    <g>
      <path class="st0" d="M51.405,260.236v.26c0,4.94-3.51,7.67-7.93,7.67h-18.721c-13.65,0-20.411-6.76-20.411-20.41V82.13c0-4.811,3.12-7.931,7.93-7.931s7.93,3.12,7.93,7.931v165.626c0,3.207,1.517,4.81,4.55,4.81h18.721c4.42,0,7.93,2.73,7.93,7.671h0Z"/>
      <path class="st0" d="M103.793,223.444c4.81,0,7.93,3.12,7.93,7.931v12.74c0,18.071-8.58,26.651-26.651,26.651s-26.651-8.58-26.651-26.651V99.03c0-18.071,8.58-26.651,26.651-26.651s26.651,8.58,26.651,26.651v36.921c0,4.81-3.12,7.93-7.93,7.93s-7.93-3.12-7.93-7.93v-36.921c0-9.36-1.69-11.05-10.791-11.05s-10.791,1.69-10.791,11.05v145.085c0,9.36,1.69,11.051,10.791,11.051s10.791-1.69,10.791-11.051v-12.74c0-4.811,3.12-7.931,7.93-7.931Z"/>
      <path class="st0" d="M127.062,262.316V99.03c0-5.07.65-9.36,2.21-13.261-2.6-2.34-2.99-3.64-2.99-6.11,0-4.291,3.9-8.061,8.19-8.061,2.21,0,3.51.39,5.98,2.99,3.9-1.56,8.19-2.21,13.261-2.21,18.071,0,26.651,8.58,26.651,26.651v12.74c0,4.681-3.25,7.931-7.93,7.931s-7.93-3.25-7.93-7.931v-12.74c0-9.36-1.69-11.05-10.791-11.05s-10.791,1.69-10.791,11.05v38.222h25.351c4.68,0,7.8,3.12,7.8,7.8s-3.12,7.801-7.8,7.801h-25.351v109.464c0,4.68-3.25,7.93-7.93,7.93s-7.93-3.25-7.93-7.93h0Z"/>
      <path class="st0" d="M201.549,74.199c4.81,0,7.93,3.12,7.93,7.931v178.366c0,4.681-3.12,7.931-7.93,7.931s-7.93-3.25-7.93-7.931V82.13c0-4.811,3.12-7.931,7.93-7.931Z"/>
    </g>
    <g>
      <path class="st2" d="M45.555,260.236v.26c0,1.3-.52,1.82-2.08,1.82h-18.721c-10.4,0-14.561-4.16-14.561-14.561V82.13c0-1.561.52-2.08,2.08-2.08s2.08.52,2.08,2.08v165.626c0,8.32,2.34,10.66,10.4,10.66h18.721c1.56,0,2.08.521,2.08,1.82h0Z"/>
      <path class="st2" d="M103.793,229.295c1.56,0,2.08.521,2.08,2.08v12.74c0,14.821-5.98,20.801-20.801,20.801s-20.801-5.979-20.801-20.801V99.03c0-14.82,5.98-20.801,20.801-20.801s20.801,5.98,20.801,20.801v36.921c0,1.56-.52,2.08-2.08,2.08s-2.08-.52-2.08-2.08v-36.921c0-12.74-4.16-16.9-16.641-16.9s-16.641,4.16-16.641,16.9v145.085c0,12.741,4.16,16.901,16.641,16.901s16.641-4.16,16.641-16.901v-12.74c0-1.56.52-2.08,2.08-2.08h0Z"/>
      <path class="st2" d="M132.912,262.316V99.03c0-6.37,1.17-11.05,3.51-14.301l-3.51-3.51c-.39-.39-.78-.91-.78-1.56,0-.39.39-1.04.78-1.43s1.04-.78,1.56-.78,1.17.521,1.43.78l3.51,3.51c3.25-2.34,7.931-3.51,14.301-3.51,14.82,0,20.801,5.98,20.801,20.801v12.74c0,1.43-.65,2.08-2.08,2.08s-2.08-.65-2.08-2.08v-12.74c0-12.74-4.16-16.9-16.641-16.9s-16.641,4.16-16.641,16.9v44.072h31.201c1.43,0,1.95.52,1.95,1.95s-.52,1.95-1.95,1.95h-31.201v115.314c0,1.43-.65,2.08-2.08,2.08s-2.08-.65-2.08-2.08h0Z"/>
      <path class="st2" d="M201.549,80.05c1.56,0,2.08.52,2.08,2.08v178.366c0,1.561-.52,2.08-2.08,2.08s-2.08-.52-2.08-2.08V82.13c0-1.561.52-2.08,2.08-2.08Z"/>
    </g>
  </g>
  <g>
    <g>
      <path class="st1" d="M279.776,266.932v.079c0,1.76-1.399,2.96-3.239,2.96h-5.759c-4.52,0-7.079-2.239-7.079-6.879v-50.951c0-1.84,1.4-3.04,3.239-3.04s3.24,1.2,3.24,3.04v50.951c0,.587.2.88.6.88h5.759c1.84,0,3.239,1.2,3.239,2.96h0Z"/>
      <path class="st1" d="M280.339,267.012v-49.671c0-6.119,3.16-8.799,8.999-8.799,5.799,0,8.999,2.68,8.999,8.799v49.671c0,1.84-1.4,3.04-3.239,3.04s-3.24-1.2-3.24-3.04v-33.834h-5.039v33.834c0,1.84-1.4,3.04-3.24,3.04s-3.239-1.2-3.239-3.04h0ZM291.857,227.179v-9.838c0-2.6-.2-2.8-2.52-2.8s-2.52.2-2.52,2.8v9.838h5.04,0Z"/>
      <path class="st1" d="M306.578,267.012v-35.474c-3.959-.96-5.759-3.76-5.759-8.438v-10.958c0-1.84,1.4-3.04,3.239-3.04s3.24,1.2,3.24,3.04v10.958c0,2.6.2,2.8,2.52,2.8s2.52-.2,2.52-2.8v-10.958c0-1.84,1.4-3.04,3.24-3.04s3.239,1.2,3.239,3.04v10.958c0,4.679-1.8,7.479-5.759,8.438v35.474c0,1.84-1.399,3.04-3.239,3.04s-3.239-1.2-3.239-3.04h-.002,0Z"/>
      <path class="st1" d="M321.298,261.973v-23.116c0-2.279.52-4.239,1.72-5.679-1.2-1.359-1.72-3.319-1.72-5.919v-9.918c0-6.119,3.16-8.799,8.999-8.799,5.799,0,8.999,2.68,8.999,8.799v3.919c0,1.84-1.4,3.039-3.239,3.039s-3.24-1.199-3.24-3.039v-3.919c0-2.6-.2-2.8-2.52-2.8s-2.52.2-2.52,2.8v9.918c0,2.6.2,2.8,2.52,2.8h3.12c1.76,0,3.159,1.199,3.159,2.959v.08c0,1.76-1.399,2.96-3.159,2.96h-3.12c-2.04,0-2.52.52-2.52,2.799v23.116c0,2.28.48,2.8,2.52,2.8s2.52-.52,2.52-2.8v-4.479c0-1.84,1.4-3.04,3.24-3.04s3.239,1.2,3.239,3.04v4.479c0,5.52-3.279,8.799-8.999,8.799-5.759,0-8.999-3.279-8.999-8.799Z"/>
      <path class="st1" d="M357.016,267.732l-3.24-21.237c-.24-1.68-.28-1.68-2.319-1.68h-1.28v22.196c0,1.84-1.44,3.04-3.24,3.04s-3.239-1.2-3.239-3.04v-49.671c0-1.6.2-2.84.6-3.96-.48-.439-.84-1.04-.84-1.999,0-1.601,1.68-3.12,3.319-3.12,1.24,0,1.919.641,2.08.8,1.16-.359,2.439-.52,3.839-.52,5.799,0,8.999,2.68,8.999,8.799v5.599c0,6.119-3.2,8.799-8.999,8.799-.92,0-1.72-.08-2.52-.24v7.279h1.24c5.079,0,7.999,2.119,8.679,6.559l3.359,21.477c.32,1.999-1.2,3.559-3.28,3.559-1.6,0-2.919-.999-3.159-2.639h.001ZM355.216,222.939v-5.599c0-2.6-.2-2.8-2.52-2.8s-2.52.2-2.52,2.8v5.599c0,2.6.2,2.8,2.52,2.8s2.52-.2,2.52-2.8Z"/>
      <path class="st1" d="M365.457,261.973v-23.116c0-2.279.52-4.239,1.72-5.679-1.2-1.359-1.72-3.319-1.72-5.919v-9.918c0-6.119,3.16-8.799,8.999-8.799,5.799,0,8.999,2.68,8.999,8.799v3.919c0,1.84-1.4,3.039-3.239,3.039s-3.24-1.199-3.24-3.039v-3.919c0-2.6-.2-2.8-2.52-2.8s-2.52.2-2.52,2.8v9.918c0,2.6.2,2.8,2.52,2.8h3.12c1.76,0,3.159,1.199,3.159,2.959v.08c0,1.76-1.399,2.96-3.159,2.96h-3.12c-2.04,0-2.52.52-2.52,2.799v23.116c0,2.28.48,2.8,2.52,2.8s2.52-.52,2.52-2.8v-4.479c0-1.84,1.4-3.04,3.24-3.04s3.239,1.2,3.239,3.04v4.479c0,5.52-3.279,8.799-8.999,8.799-5.759,0-8.999-3.279-8.999-8.799Z"/>
      <path class="st1" d="M402.614,202.143c1.84,0,3.24,1.2,3.24,3.04v56.631c0,6.118-3.2,8.798-8.999,8.798-5.839,0-8.999-2.68-8.999-8.798v-44.633c0-6.119,3.16-8.799,8.999-8.799.92,0,1.72.08,2.52.24v-3.439c0-1.839,1.4-3.04,3.239-3.04h0ZM396.855,264.612c2.32,0,2.52-.2,2.52-2.799v-44.633c0-2.6-.2-2.8-2.52-2.8s-2.52.2-2.52,2.8v44.633c0,2.599.2,2.799,2.52,2.799Z"/>
      <path class="st1" d="M442.293,255.014c1.84,0,3.239,1.2,3.239,3.04v3.919c0,6.119-3.199,8.799-8.998,8.799-5.839,0-8.999-2.68-8.999-8.799v-44.632c0-6.119,3.16-8.799,8.999-8.799,5.799,0,8.998,2.68,8.998,8.799v11.357c0,1.84-1.399,3.04-3.239,3.04s-3.239-1.2-3.239-3.04v-11.357c0-2.6-.2-2.8-2.52-2.8s-2.52.2-2.52,2.8v44.632c0,2.6.199,2.8,2.52,2.8s2.52-.2,2.52-2.8v-3.919c0-1.84,1.399-3.04,3.239-3.04h0Z"/>
      <path class="st1" d="M458.934,208.542c5.799,0,8.998,2.68,8.998,8.799v44.632c0,6.119-3.199,8.799-8.998,8.799-5.839,0-8.999-2.68-8.999-8.799v-44.632c0-6.119,3.16-8.799,8.999-8.799h0ZM458.934,264.772c2.319,0,2.52-.2,2.52-2.8v-44.632c0-2.6-.2-2.8-2.52-2.8s-2.52.2-2.52,2.8v44.632c0,2.6.199,2.8,2.52,2.8Z"/>
      <path class="st1" d="M489.052,266.932v.079c0,1.76-1.399,2.96-3.239,2.96h-5.759c-4.52,0-7.079-2.239-7.079-6.879v-50.951c0-1.84,1.4-3.04,3.239-3.04s3.24,1.2,3.24,3.04v50.951c0,.587.2.88.6.88h5.759c1.84,0,3.239,1.2,3.239,2.96h0Z"/>
      <path class="st1" d="M498.613,208.542c5.799,0,8.999,2.68,8.999,8.799v44.632c0,6.119-3.2,8.799-8.999,8.799-5.839,0-8.998-2.68-8.998-8.799v-44.632c0-6.119,3.159-8.799,8.998-8.799h0ZM498.613,264.772c2.32,0,2.52-.2,2.52-2.8v-44.632c0-2.6-.199-2.8-2.52-2.8s-2.52.2-2.52,2.8v44.632c0,2.6.2,2.8,2.52,2.8Z"/>
      <path class="st1" d="M527.412,209.101c1.84,0,3.239,1.2,3.239,3.04v49.831c0,6.119-3.199,8.799-8.998,8.799-5.839,0-8.999-2.68-8.999-8.799v-49.831c0-1.84,1.4-3.04,3.239-3.04s3.24,1.2,3.24,3.04v49.831c0,2.6.199,2.8,2.52,2.8s2.52-.2,2.52-2.8v-49.831c0-1.84,1.399-3.04,3.239-3.04h0Z"/>
      <path class="st1" d="M549.011,267.732l-3.239-21.237c-.24-1.68-.28-1.68-2.32-1.68h-1.279v22.196c0,1.84-1.439,3.04-3.239,3.04s-3.239-1.2-3.239-3.04v-49.671c0-1.6.2-2.84.6-3.96-.479-.439-.84-1.04-.84-1.999,0-1.601,1.68-3.12,3.319-3.12,1.24,0,1.92.641,2.08.8,1.159-.359,2.439-.52,3.839-.52,5.799,0,8.998,2.68,8.998,8.799v5.599c0,6.119-3.199,8.799-8.998,8.799-.92,0-1.72-.08-2.52-.24v7.279h1.239c5.08,0,7.999,2.119,8.679,6.559l3.359,21.477c.32,1.999-1.199,3.559-3.279,3.559-1.6,0-2.919-.999-3.159-2.639h0ZM547.211,222.939v-5.599c0-2.6-.2-2.8-2.52-2.8s-2.52.2-2.52,2.8v5.599c0,2.6.2,2.8,2.52,2.8s2.52-.2,2.52-2.8Z"/>
      <path class="st1" d="M572.812,267.572v-50.231c0-1.6.199-2.84.6-3.96-.561-.6-.84-1.239-.84-1.999,0-1.64,1.6-3.12,3.319-3.12,1.12,0,1.64.4,2.079.8,1.16-.359,2.44-.52,3.84-.52,5.799,0,8.998,2.68,8.998,8.799v3.919c0,1.8-1.439,3.039-3.239,3.039s-3.239-1.239-3.239-3.039v-3.919c0-2.6-.2-2.8-2.52-2.8s-2.52.2-2.52,2.8v11.158h6.999c1.8,0,3.199,1.199,3.199,2.999s-1.399,3-3.199,3h-6.999v33.074c0,1.8-1.439,3.039-3.239,3.039s-3.239-1.239-3.239-3.039h0Z"/>
      <path class="st1" d="M602.289,208.542c5.8,0,8.999,2.68,8.999,8.799v44.632c0,6.119-3.199,8.799-8.999,8.799-5.839,0-8.998-2.68-8.998-8.799v-44.632c0-6.119,3.159-8.799,8.998-8.799h0ZM602.289,264.772c2.32,0,2.521-.2,2.521-2.8v-44.632c0-2.6-.2-2.8-2.521-2.8s-2.52.2-2.52,2.8v44.632c0,2.6.2,2.8,2.52,2.8Z"/>
      <path class="st1" d="M616.331,267.012v-49.671c0-1.6.2-2.84.6-3.96-.239-.239-.84-.92-.84-1.999,0-1.72,1.68-3.12,3.319-3.12,1,0,1.72.44,2.08.8,1.16-.359,2.439-.52,3.84-.52,5.799,0,8.998,2.68,8.998,8.799v49.671c0,1.84-1.399,3.04-3.239,3.04s-3.239-1.2-3.239-3.04v-49.671c0-2.6-.2-2.8-2.52-2.8s-2.521.2-2.521,2.8v49.671c0,1.84-1.399,3.04-3.239,3.04s-3.239-1.2-3.239-3.04h0Z"/>
      <path class="st1" d="M653.528,212.141v.08c0,1.76-1.399,2.959-3.239,2.959h-2.52v51.831c0,1.84-1.399,3.04-3.239,3.04s-3.239-1.2-3.239-3.04v-51.831h-2.6c-1.76,0-3.159-1.199-3.159-2.959v-.08c0-1.76,1.399-2.96,3.159-2.96h11.598c1.84,0,3.239,1.2,3.239,2.96h0Z"/>
      <path class="st1" d="M674.608,209.101c1.84,0,3.239,1.2,3.239,3.04v54.87c0,1.84-1.399,3.04-3.239,3.04s-3.239-1.2-3.239-3.04v-54.87c0-1.84,1.399-3.04,3.239-3.04Z"/>
      <path class="st1" d="M682.888,267.012v-49.671c0-1.6.2-2.84.6-3.96-.239-.239-.84-.92-.84-1.999,0-1.72,1.68-3.12,3.319-3.12,1,0,1.72.44,2.08.8,1.16-.359,2.439-.52,3.839-.52,5.8,0,8.999,2.68,8.999,8.799v49.671c0,1.84-1.399,3.04-3.239,3.04s-3.239-1.2-3.239-3.04v-49.671c0-2.6-.2-2.8-2.521-2.8s-2.52.2-2.52,2.8v49.671c0,1.84-1.399,3.04-3.239,3.04s-3.239-1.2-3.239-3.04h0Z"/>
      <path class="st1" d="M720.685,202.143c1.84,0,3.239,1.2,3.239,3.04v56.631c0,6.118-3.199,8.798-8.999,8.798-5.839,0-8.998-2.68-8.998-8.798v-44.633c0-6.119,3.159-8.799,8.998-8.799.92,0,1.72.08,2.521.24v-3.439c0-1.839,1.399-3.04,3.239-3.04h0ZM714.925,264.612c2.32,0,2.521-.2,2.521-2.799v-44.633c0-2.6-.2-2.8-2.521-2.8s-2.52.2-2.52,2.8v44.633c0,2.599.2,2.799,2.52,2.799Z"/>
      <path class="st1" d="M728.967,261.973v-23.116c0-2.279.52-4.239,1.72-5.679-1.2-1.359-1.72-3.319-1.72-5.919v-9.918c0-6.119,3.159-8.799,8.999-8.799,5.799,0,8.998,2.68,8.998,8.799v3.919c0,1.84-1.399,3.039-3.239,3.039s-3.239-1.199-3.239-3.039v-3.919c0-2.6-.2-2.8-2.52-2.8s-2.521.2-2.521,2.8v9.918c0,2.6.2,2.8,2.521,2.8h3.119c1.76,0,3.159,1.199,3.159,2.959v.08c0,1.76-1.399,2.96-3.159,2.96h-3.119c-2.04,0-2.521.52-2.521,2.799v23.116c0,2.28.48,2.8,2.521,2.8s2.52-.52,2.52-2.8v-4.479c0-1.84,1.399-3.04,3.239-3.04s3.239,1.2,3.239,3.04v4.479c0,5.52-3.279,8.799-8.998,8.799-5.76,0-8.999-3.279-8.999-8.799Z"/>
      <path class="st1" d="M761.605,267.012v-27.755c0-1.2-.16-1.52-1.08-2.08l-.52-.359-4.68,30.635v.08c-.279,1.6-1.64,2.52-3.199,2.52-1.8,0-3.199-1.2-3.199-3.08,0-.359.04-.6.12-1.039l5.039-32.955.52.32c-2.279-1.479-4.519-3.439-4.519-7.559v-13.598c0-1.8,1.439-3.04,3.239-3.04s3.239,1.24,3.239,3.04v13.598c0,1.279.28,1.68,1.56,2.52l.4.24,3.479-16.918c.319-1.56,1.64-2.479,3.119-2.479,1.64,0,3.72,1.32,3.239,3.6l-3.959,19.597-.36-.2c2.92,1.88,4.039,4.04,4.039,7.159v27.755c0,1.84-1.439,3.04-3.239,3.04s-3.239-1.2-3.239-3.04v-.002h0Z"/>
    </g>
    <g>
      <path class="st0" d="M278.977,266.932v.079c0,1.521-1.08,2.36-2.439,2.36h-5.759c-4.2,0-6.279-2.08-6.279-6.279v-50.951c0-1.48.96-2.439,2.439-2.439s2.44.959,2.44,2.439v50.951c0,.986.467,1.479,1.4,1.479h5.759c1.36,0,2.439.84,2.439,2.36h0Z"/>
      <path class="st0" d="M281.139,267.012v-49.671c0-5.56,2.64-8.199,8.199-8.199s8.199,2.64,8.199,8.199v49.671c0,1.44-.96,2.44-2.439,2.44s-2.44-1-2.44-2.44v-34.434h-6.639v34.434c0,1.44-.96,2.44-2.44,2.44s-2.439-1-2.439-2.44h-.001ZM292.657,227.778v-10.438c0-2.88-.52-3.399-3.319-3.399s-3.319.52-3.319,3.399v10.438h6.639-.001Z"/>
      <path class="st0" d="M307.377,267.012v-35.913c-3.919-.721-5.759-3.32-5.759-7.999v-10.958c0-1.48.96-2.439,2.439-2.439s2.44.959,2.44,2.439v10.958c0,2.88.52,3.399,3.319,3.399s3.319-.52,3.319-3.399v-10.958c0-1.48.96-2.439,2.44-2.439s2.439.959,2.439,2.439v10.958c0,4.679-1.84,7.278-5.759,7.999v35.913c0,1.44-.959,2.44-2.439,2.44s-2.439-1-2.439-2.44Z"/>
      <path class="st0" d="M322.098,261.973v-23.116c0-2.039.4-4.239,1.88-5.719-1.48-1.399-1.88-3.52-1.88-5.879v-9.918c0-5.56,2.64-8.199,8.199-8.199s8.199,2.64,8.199,8.199v3.919c0,1.479-.96,2.439-2.439,2.439s-2.44-.96-2.44-2.439v-3.919c0-2.88-.52-3.399-3.319-3.399s-3.319.52-3.319,3.399v9.918c0,2.88.52,3.399,3.319,3.399h3.12c1.399,0,2.359.96,2.359,2.359v.08c0,1.4-.96,2.359-2.359,2.359h-3.12c-2.52,0-3.319.8-3.319,3.399v23.116c0,2.6.8,3.399,3.319,3.399s3.319-.8,3.319-3.399v-4.479c0-1.48.96-2.44,2.44-2.44s2.439.96,2.439,2.44v4.479c0,5.239-2.959,8.199-8.199,8.199s-8.199-2.96-8.199-8.199v.002h0Z"/>
      <path class="st0" d="M344.498,267.012v-49.671c0-1.561.2-2.88.68-4.08-.76-.68-.92-1.239-.92-1.879,0-1.16,1.12-2.479,2.52-2.479.64,0,1.12.119,1.84.919,1.2-.479,2.52-.68,4.079-.68,5.559,0,8.199,2.64,8.199,8.199v5.599c0,5.56-2.64,8.198-8.199,8.198-1.24,0-2.359-.159-3.319-.479v8.719h2.04c4.679,0,7.239,1.84,7.879,6.039l3.359,21.556c.24,1.561-.8,2.8-2.48,2.8-1.2,0-2.159-.84-2.359-2.079l-3.239-21.276c-.32-2.04-.56-2.2-3.12-2.2h-2.08v22.796c0,1.44-1,2.44-2.44,2.44s-2.439-1-2.439-2.44v-.002h0ZM352.697,226.339c2.799,0,3.319-.52,3.319-3.399v-5.599c0-2.88-.52-3.399-3.319-3.399s-3.319.52-3.319,3.399v5.599c0,2.88.52,3.399,3.319,3.399Z"/>
      <path class="st0" d="M366.257,261.973v-23.116c0-2.039.4-4.239,1.88-5.719-1.48-1.399-1.88-3.52-1.88-5.879v-9.918c0-5.56,2.64-8.199,8.199-8.199s8.199,2.64,8.199,8.199v3.919c0,1.479-.96,2.439-2.439,2.439s-2.44-.96-2.44-2.439v-3.919c0-2.88-.52-3.399-3.319-3.399s-3.319.52-3.319,3.399v9.918c0,2.88.52,3.399,3.319,3.399h3.12c1.399,0,2.359.96,2.359,2.359v.08c0,1.4-.96,2.359-2.359,2.359h-3.12c-2.52,0-3.319.8-3.319,3.399v23.116c0,2.6.8,3.399,3.319,3.399s3.319-.8,3.319-3.399v-4.479c0-1.48.96-2.44,2.44-2.44s2.439.96,2.439,2.44v4.479c0,5.239-2.959,8.199-8.199,8.199s-8.199-2.96-8.199-8.199v.002h0Z"/>
      <path class="st0" d="M402.614,202.743c1.48,0,2.44.96,2.44,2.439v56.631c0,5.559-2.64,8.198-8.199,8.198s-8.199-2.64-8.199-8.198v-44.633c0-5.56,2.64-8.199,8.199-8.199,1.24,0,2.32.12,3.319.44v-4.239c0-1.479.96-2.439,2.439-2.439h.001ZM396.855,265.213c2.799,0,3.319-.521,3.319-3.399v-44.633c0-2.88-.52-3.399-3.319-3.399s-3.319.52-3.319,3.399v44.633c0,2.879.52,3.399,3.319,3.399Z"/>
      <path class="st0" d="M442.293,255.614c1.479,0,2.439.96,2.439,2.439v3.919c0,5.56-2.64,8.199-8.198,8.199s-8.199-2.64-8.199-8.199v-44.632c0-5.56,2.64-8.199,8.199-8.199s8.198,2.64,8.198,8.199v11.357c0,1.48-.96,2.439-2.439,2.439s-2.439-.959-2.439-2.439v-11.357c0-2.88-.521-3.399-3.319-3.399s-3.319.52-3.319,3.399v44.632c0,2.88.52,3.399,3.319,3.399s3.319-.52,3.319-3.399v-3.919c0-1.479.96-2.439,2.439-2.439h0Z"/>
      <path class="st0" d="M458.934,209.141c5.559,0,8.198,2.64,8.198,8.199v44.632c0,5.56-2.64,8.199-8.198,8.199s-8.199-2.64-8.199-8.199v-44.632c0-5.56,2.64-8.199,8.199-8.199ZM458.934,265.372c2.799,0,3.319-.52,3.319-3.399v-44.632c0-2.88-.521-3.399-3.319-3.399s-3.319.52-3.319,3.399v44.632c0,2.88.52,3.399,3.319,3.399Z"/>
      <path class="st0" d="M488.252,266.932v.079c0,1.521-1.079,2.36-2.439,2.36h-5.759c-4.199,0-6.279-2.08-6.279-6.279v-50.951c0-1.48.96-2.439,2.439-2.439s2.44.959,2.44,2.439v50.951c0,.986.466,1.479,1.399,1.479h5.759c1.36,0,2.439.84,2.439,2.36h.001Z"/>
      <path class="st0" d="M498.613,209.141c5.56,0,8.199,2.64,8.199,8.199v44.632c0,5.56-2.64,8.199-8.199,8.199s-8.198-2.64-8.198-8.199v-44.632c0-5.56,2.64-8.199,8.198-8.199ZM498.613,265.372c2.8,0,3.319-.52,3.319-3.399v-44.632c0-2.88-.52-3.399-3.319-3.399s-3.319.52-3.319,3.399v44.632c0,2.88.521,3.399,3.319,3.399Z"/>
      <path class="st0" d="M527.412,209.702c1.479,0,2.439.959,2.439,2.439v49.831c0,5.56-2.64,8.199-8.198,8.199s-8.199-2.64-8.199-8.199v-49.831c0-1.48.96-2.439,2.439-2.439s2.44.959,2.44,2.439v49.831c0,2.88.52,3.399,3.319,3.399s3.319-.52,3.319-3.399v-49.831c0-1.48.96-2.439,2.439-2.439h.002,0Z"/>
      <path class="st0" d="M536.494,267.012v-49.671c0-1.561.2-2.88.68-4.08-.76-.68-.92-1.239-.92-1.879,0-1.16,1.12-2.479,2.52-2.479.64,0,1.12.119,1.84.919,1.2-.479,2.52-.68,4.079-.68,5.559,0,8.198,2.64,8.198,8.199v5.599c0,5.56-2.64,8.198-8.198,8.198-1.24,0-2.359-.159-3.319-.479v8.719h2.039c4.68,0,7.239,1.84,7.879,6.039l3.359,21.556c.24,1.561-.8,2.8-2.479,2.8-1.199,0-2.159-.84-2.359-2.079l-3.239-21.276c-.32-2.04-.561-2.2-3.12-2.2h-2.079v22.796c0,1.44-1,2.44-2.439,2.44s-2.439-1-2.439-2.44l-.003-.002h0ZM544.692,226.339c2.8,0,3.319-.52,3.319-3.399v-5.599c0-2.88-.52-3.399-3.319-3.399s-3.319.52-3.319,3.399v5.599c0,2.88.521,3.399,3.319,3.399Z"/>
      <path class="st0" d="M573.612,267.572v-50.231c0-1.561.199-2.88.68-4.08-.8-.72-.92-1.119-.92-1.879,0-1.32,1.199-2.479,2.52-2.479.68,0,1.08.119,1.84.919,1.199-.479,2.52-.68,4.079-.68,5.559,0,8.198,2.64,8.198,8.199v3.919c0,1.439-.999,2.439-2.439,2.439s-2.439-1-2.439-2.439v-3.919c0-2.88-.52-3.399-3.319-3.399s-3.319.52-3.319,3.399v11.758h7.799c1.439,0,2.399.96,2.399,2.399s-.96,2.399-2.399,2.399h-7.799v33.675c0,1.439-1,2.439-2.439,2.439s-2.439-1-2.439-2.439h-.003Z"/>
      <path class="st0" d="M602.289,209.141c5.56,0,8.199,2.64,8.199,8.199v44.632c0,5.56-2.64,8.199-8.199,8.199s-8.198-2.64-8.198-8.199v-44.632c0-5.56,2.64-8.199,8.198-8.199ZM602.289,265.372c2.8,0,3.32-.52,3.32-3.399v-44.632c0-2.88-.521-3.399-3.32-3.399s-3.319.52-3.319,3.399v44.632c0,2.88.521,3.399,3.319,3.399Z"/>
      <path class="st0" d="M617.13,267.012v-49.671c0-1.561.2-2.88.68-4.08-.76-.68-.92-1.239-.92-1.879,0-1.16,1.12-2.479,2.52-2.479.641,0,1.12.119,1.84.919,1.2-.479,2.52-.68,4.08-.68,5.559,0,8.198,2.64,8.198,8.199v49.671c0,1.44-.96,2.44-2.439,2.44s-2.439-1-2.439-2.44v-49.671c0-2.88-.521-3.399-3.319-3.399s-3.32.52-3.32,3.399v49.671c0,1.44-.959,2.44-2.439,2.44s-2.439-1-2.439-2.44h-.003Z"/>
      <path class="st0" d="M652.728,212.141v.08c0,1.52-1.079,2.359-2.439,2.359h-3.319v52.431c0,1.44-.96,2.44-2.439,2.44s-2.439-1-2.439-2.44v-52.431h-3.399c-1.36,0-2.359-.96-2.359-2.359v-.08c0-1.4.999-2.36,2.359-2.36h11.598c1.36,0,2.439.841,2.439,2.36h-.002Z"/>
      <path class="st0" d="M674.608,209.702c1.48,0,2.439.959,2.439,2.439v54.87c0,1.44-.959,2.44-2.439,2.44s-2.439-1-2.439-2.44v-54.87c0-1.48.96-2.439,2.439-2.439Z"/>
      <path class="st0" d="M683.688,267.012v-49.671c0-1.561.2-2.88.68-4.08-.76-.68-.92-1.239-.92-1.879,0-1.16,1.12-2.479,2.52-2.479.641,0,1.12.119,1.84.919,1.2-.479,2.52-.68,4.079-.68,5.56,0,8.199,2.64,8.199,8.199v49.671c0,1.44-.96,2.44-2.439,2.44s-2.439-1-2.439-2.44v-49.671c0-2.88-.521-3.399-3.32-3.399s-3.319.52-3.319,3.399v49.671c0,1.44-.959,2.44-2.439,2.44s-2.439-1-2.439-2.44h-.003,0Z"/>
      <path class="st0" d="M720.685,202.743c1.479,0,2.439.96,2.439,2.439v56.631c0,5.559-2.64,8.198-8.199,8.198s-8.198-2.64-8.198-8.198v-44.633c0-5.56,2.64-8.199,8.198-8.199,1.24,0,2.32.12,3.32.44v-4.239c0-1.479.959-2.439,2.439-2.439h0ZM714.925,265.213c2.8,0,3.32-.521,3.32-3.399v-44.633c0-2.88-.521-3.399-3.32-3.399s-3.319.52-3.319,3.399v44.633c0,2.879.521,3.399,3.319,3.399Z"/>
      <path class="st0" d="M729.767,261.973v-23.116c0-2.039.4-4.239,1.88-5.719-1.479-1.399-1.88-3.52-1.88-5.879v-9.918c0-5.56,2.64-8.199,8.199-8.199s8.198,2.64,8.198,8.199v3.919c0,1.479-.96,2.439-2.439,2.439s-2.439-.96-2.439-2.439v-3.919c0-2.88-.521-3.399-3.319-3.399s-3.32.52-3.32,3.399v9.918c0,2.88.521,3.399,3.32,3.399h3.119c1.399,0,2.359.96,2.359,2.359v.08c0,1.4-.96,2.359-2.359,2.359h-3.119c-2.521,0-3.32.8-3.32,3.399v23.116c0,2.6.8,3.399,3.32,3.399s3.319-.8,3.319-3.399v-4.479c0-1.48.959-2.44,2.439-2.44s2.439.96,2.439,2.44v4.479c0,5.239-2.96,8.199-8.198,8.199s-8.199-2.96-8.199-8.199v.002h0Z"/>
      <path class="st0" d="M762.405,267.012v-27.755c0-1.359-.24-1.84-1.439-2.6l-1.56-1-4.88,31.715c-.199,1.279-1.199,2-2.399,2-1.239,0-2.399-.721-2.399-2.2,0-.2,0-.359.04-.56l5.159-33.874c-2-1.32-4.039-3.2-4.039-6.999v-13.598c0-1.44.999-2.439,2.439-2.439s2.439.999,2.439,2.439v13.598c0,1.56.52,2.119,1.96,3.039l1.359.88,3.72-17.997c.279-1.279,1.199-1.88,2.319-1.88,1.76,0,2.8,1.12,2.439,2.84l-4.039,19.917.08.04c2.64,1.72,3.679,3.719,3.679,6.679v27.755c0,1.44-.999,2.44-2.439,2.44s-2.439-1-2.439-2.44Z"/>
    </g>
    <g>
      <path class="st2" d="M277.177,266.932v.079c0,.4-.16.561-.64.561h-5.759c-3.2,0-4.479-1.28-4.479-4.479v-50.951c0-.48.16-.641.64-.641s.64.16.64.641v50.951c0,2.56.72,3.279,3.2,3.279h5.759c.48,0,.64.16.64.561h-.001Z"/>
      <path class="st2" d="M282.938,267.012v-49.671c0-4.56,1.84-6.399,6.399-6.399s6.399,1.84,6.399,6.399v49.671c0,.48-.16.641-.64.641s-.64-.16-.64-.641v-36.233h-10.238v36.233c0,.48-.16.641-.64.641s-.64-.16-.64-.641h0ZM294.457,229.578v-12.237c0-3.92-1.28-5.199-5.119-5.199s-5.119,1.279-5.119,5.199v12.237h10.238,0Z"/>
      <path class="st2" d="M309.177,267.012v-37.514c-4.119-.199-5.759-2.039-5.759-6.398v-10.958c0-.48.16-.641.64-.641s.64.16.64.641v10.958c0,3.919,1.28,5.199,5.119,5.199s5.119-1.28,5.119-5.199v-10.958c0-.48.16-.641.64-.641s.64.16.64.641v10.958c0,4.359-1.64,6.199-5.759,6.398v37.514c0,.48-.16.641-.64.641s-.64-.16-.64-.641Z"/>
      <path class="st2" d="M323.897,261.973v-23.116c0-2.719.64-5.039,4-5.679v-.16c-3.36-.56-4-2.56-4-5.759v-9.918c0-4.56,1.84-6.399,6.399-6.399s6.399,1.84,6.399,6.399v3.919c0,.479-.16.64-.64.64s-.64-.16-.64-.64v-3.919c0-3.92-1.28-5.199-5.119-5.199s-5.119,1.279-5.119,5.199v9.918c0,3.919,1.28,5.199,5.119,5.199h3.12c.4,0,.56.16.56.56v.08c0,.4-.16.561-.56.561h-3.12c-3.52,0-5.119,1.6-5.119,5.198v23.116c0,3.6,1.6,5.199,5.119,5.199s5.119-1.6,5.119-5.199v-4.479c0-.48.16-.641.64-.641s.64.16.64.641v4.479c0,4.239-2.16,6.399-6.399,6.399s-6.399-2.16-6.399-6.399Z"/>
      <path class="st2" d="M346.298,267.012v-49.671c0-1.96.36-3.399,1.08-4.399l-1.08-1.08c-.08-.08-.24-.32-.24-.479,0-.12.16-.36.24-.44.16-.16.32-.24.48-.24.12,0,.28.08.44.24l1.08,1.08c1-.72,2.44-1.08,4.399-1.08,4.559,0,6.399,1.84,6.399,6.399v5.599c0,4.56-1.84,6.399-6.399,6.399-2.68,0-4.359-.721-5.239-2.4l-.12.04c.2,1.521.24,2.92.24,4.52v9.679h3.839c3.839,0,5.639,1.319,6.119,4.519l3.359,21.557c.08.44-.16.72-.72.72-.32,0-.52-.16-.56-.52l-3.28-21.316c-.439-2.8-1.28-3.72-4.879-3.72h-3.879v24.596c0,.44-.2.641-.64.641s-.64-.2-.64-.641v-.003h.001ZM352.697,228.139c3.839,0,5.119-1.28,5.119-5.199v-5.599c0-3.92-1.28-5.199-5.119-5.199s-5.119,1.279-5.119,5.199v5.599c0,3.919,1.28,5.199,5.119,5.199Z"/>
      <path class="st2" d="M368.057,261.973v-23.116c0-2.719.64-5.039,4-5.679v-.16c-3.36-.56-4-2.56-4-5.759v-9.918c0-4.56,1.84-6.399,6.399-6.399s6.399,1.84,6.399,6.399v3.919c0,.479-.16.64-.64.64s-.64-.16-.64-.64v-3.919c0-3.92-1.28-5.199-5.119-5.199s-5.119,1.279-5.119,5.199v9.918c0,3.919,1.28,5.199,5.119,5.199h3.12c.4,0,.56.16.56.56v.08c0,.4-.16.561-.56.561h-3.12c-3.52,0-5.119,1.6-5.119,5.198v23.116c0,3.6,1.6,5.199,5.119,5.199s5.119-1.6,5.119-5.199v-4.479c0-.48.16-.641.64-.641s.64.16.64.641v4.479c0,4.239-2.16,6.399-6.399,6.399s-6.399-2.16-6.399-6.399Z"/>
      <path class="st2" d="M402.614,204.543c.48,0,.64.159.64.64v56.631c0,4.559-1.84,6.398-6.399,6.398s-6.399-1.84-6.399-6.398v-44.633c0-4.56,1.84-6.399,6.399-6.399,2.64,0,4.319.681,5.239,2.4l.12-.04c-.2-1.521-.24-2.92-.24-4.52v-3.439c0-.48.16-.64.64-.64h0ZM396.855,267.012c3.839,0,5.119-1.279,5.119-5.198v-44.633c0-3.92-1.28-5.199-5.119-5.199s-5.119,1.279-5.119,5.199v44.633c0,3.919,1.28,5.198,5.119,5.198Z"/>
      <path class="st2" d="M442.293,257.414c.479,0,.64.159.64.64v3.919c0,4.56-1.84,6.399-6.398,6.399s-6.399-1.84-6.399-6.399v-44.632c0-4.56,1.84-6.399,6.399-6.399s6.398,1.84,6.398,6.399v11.357c0,.48-.16.641-.64.641s-.64-.16-.64-.641v-11.357c0-3.92-1.28-5.199-5.119-5.199s-5.119,1.279-5.119,5.199v44.632c0,3.92,1.279,5.199,5.119,5.199s5.119-1.279,5.119-5.199v-3.919c0-.48.16-.64.64-.64Z"/>
      <path class="st2" d="M458.934,210.941c4.559,0,6.398,1.84,6.398,6.399v44.632c0,4.56-1.84,6.399-6.398,6.399s-6.399-1.84-6.399-6.399v-44.632c0-4.56,1.84-6.399,6.399-6.399h0ZM458.934,267.172c3.839,0,5.119-1.279,5.119-5.199v-44.632c0-3.92-1.28-5.199-5.119-5.199s-5.119,1.279-5.119,5.199v44.632c0,3.92,1.279,5.199,5.119,5.199Z"/>
      <path class="st2" d="M486.453,266.932v.079c0,.4-.159.561-.64.561h-5.759c-3.199,0-4.479-1.28-4.479-4.479v-50.951c0-.48.16-.641.64-.641s.641.16.641.641v50.951c0,2.56.72,3.279,3.199,3.279h5.759c.48,0,.64.16.64.561h-.001Z"/>
      <path class="st2" d="M498.613,210.941c4.56,0,6.399,1.84,6.399,6.399v44.632c0,4.56-1.84,6.399-6.399,6.399s-6.398-1.84-6.398-6.399v-44.632c0-4.56,1.84-6.399,6.398-6.399h0ZM498.613,267.172c3.84,0,5.119-1.279,5.119-5.199v-44.632c0-3.92-1.279-5.199-5.119-5.199s-5.119,1.279-5.119,5.199v44.632c0,3.92,1.28,5.199,5.119,5.199Z"/>
      <path class="st2" d="M527.412,211.501c.479,0,.64.16.64.641v49.831c0,4.56-1.84,6.399-6.398,6.399s-6.399-1.84-6.399-6.399v-49.831c0-.48.16-.641.64-.641s.641.16.641.641v49.831c0,3.92,1.279,5.199,5.119,5.199s5.119-1.279,5.119-5.199v-49.831c0-.48.16-.641.64-.641h-.002Z"/>
      <path class="st2" d="M538.293,267.012v-49.671c0-1.96.359-3.399,1.079-4.399l-1.079-1.08c-.08-.08-.24-.32-.24-.479,0-.12.16-.36.24-.44.16-.16.319-.24.479-.24.12,0,.28.08.44.24l1.079,1.08c1-.72,2.44-1.08,4.399-1.08,4.56,0,6.399,1.84,6.399,6.399v5.599c0,4.56-1.84,6.399-6.399,6.399-2.68,0-4.359-.721-5.239-2.4l-.119.04c.199,1.521.239,2.92.239,4.52v9.679h3.839c3.84,0,5.64,1.319,6.119,4.519l3.359,21.557c.08.44-.159.72-.72.72-.319,0-.52-.16-.56-.52l-3.279-21.316c-.44-2.8-1.28-3.72-4.88-3.72h-3.879v24.596c0,.44-.2.641-.64.641s-.64-.2-.64-.641l.003-.003h0ZM544.692,228.139c3.839,0,5.119-1.28,5.119-5.199v-5.599c0-3.92-1.28-5.199-5.119-5.199s-5.119,1.279-5.119,5.199v5.599c0,3.919,1.28,5.199,5.119,5.199Z"/>
      <path class="st2" d="M575.412,267.572v-50.231c0-1.96.359-3.399,1.079-4.399l-1.079-1.08c-.12-.12-.24-.28-.24-.479,0-.12.12-.32.24-.44.119-.12.319-.24.479-.24s.36.16.439.24l1.08,1.08c1-.72,2.439-1.08,4.399-1.08,4.56,0,6.398,1.84,6.398,6.399v3.919c0,.44-.199.64-.64.64s-.64-.199-.64-.64v-3.919c0-3.92-1.279-5.199-5.119-5.199s-5.119,1.279-5.119,5.199v13.558h9.599c.439,0,.6.16.6.6s-.16.6-.6.6h-9.599v35.475c0,.439-.2.64-.64.64s-.64-.2-.64-.64l.003-.003h0Z"/>
      <path class="st2" d="M602.289,210.941c4.56,0,6.399,1.84,6.399,6.399v44.632c0,4.56-1.84,6.399-6.399,6.399s-6.398-1.84-6.398-6.399v-44.632c0-4.56,1.84-6.399,6.398-6.399h0ZM602.289,267.172c3.84,0,5.119-1.279,5.119-5.199v-44.632c0-3.92-1.279-5.199-5.119-5.199s-5.119,1.279-5.119,5.199v44.632c0,3.92,1.28,5.199,5.119,5.199Z"/>
      <path class="st2" d="M618.93,267.012v-49.671c0-1.96.36-3.399,1.08-4.399l-1.08-1.08c-.08-.08-.24-.32-.24-.479,0-.12.16-.36.24-.44.16-.16.32-.24.479-.24.12,0,.28.08.44.24l1.08,1.08c.999-.72,2.439-1.08,4.399-1.08,4.559,0,6.398,1.84,6.398,6.399v49.671c0,.48-.16.641-.64.641s-.64-.16-.64-.641v-49.671c0-3.92-1.28-5.199-5.119-5.199s-5.119,1.279-5.119,5.199v49.671c0,.48-.16.641-.641.641s-.64-.16-.64-.641h.003Z"/>
      <path class="st2" d="M650.929,212.141v.08c0,.399-.16.56-.641.56h-5.119v54.23c0,.48-.16.641-.64.641s-.64-.16-.64-.641v-54.23h-5.199c-.4,0-.561-.16-.561-.56v-.08c0-.4.16-.561.561-.561h11.598c.48,0,.641.16.641.561h0Z"/>
      <path class="st2" d="M674.608,211.501c.48,0,.64.16.64.641v54.87c0,.48-.159.641-.64.641s-.64-.16-.64-.641v-54.87c0-.48.16-.641.64-.641h0Z"/>
      <path class="st2" d="M685.488,267.012v-49.671c0-1.96.36-3.399,1.08-4.399l-1.08-1.08c-.08-.08-.24-.32-.24-.479,0-.12.16-.36.24-.44.16-.16.32-.24.479-.24.12,0,.28.08.44.24l1.08,1.08c.999-.72,2.439-1.08,4.398-1.08,4.56,0,6.399,1.84,6.399,6.399v49.671c0,.48-.16.641-.64.641s-.641-.16-.641-.641v-49.671c0-3.92-1.279-5.199-5.119-5.199s-5.119,1.279-5.119,5.199v49.671c0,.48-.159.641-.64.641s-.64-.16-.64-.641h.003Z"/>
      <path class="st2" d="M720.685,204.543c.479,0,.64.159.64.64v56.631c0,4.559-1.84,6.398-6.399,6.398s-6.398-1.84-6.398-6.398v-44.633c0-4.56,1.84-6.399,6.398-6.399,2.64,0,4.319.681,5.239,2.4l.12-.04c-.2-1.521-.24-2.92-.24-4.52v-3.439c0-.48.16-.64.641-.64h-.001ZM714.925,267.012c3.84,0,5.119-1.279,5.119-5.198v-44.633c0-3.92-1.279-5.199-5.119-5.199s-5.119,1.279-5.119,5.199v44.633c0,3.919,1.28,5.198,5.119,5.198Z"/>
      <path class="st2" d="M731.567,261.973v-23.116c0-2.719.64-5.039,3.999-5.679v-.16c-3.359-.56-3.999-2.56-3.999-5.759v-9.918c0-4.56,1.84-6.399,6.399-6.399s6.398,1.84,6.398,6.399v3.919c0,.479-.16.64-.64.64s-.64-.16-.64-.64v-3.919c0-3.92-1.28-5.199-5.119-5.199s-5.119,1.279-5.119,5.199v9.918c0,3.919,1.279,5.199,5.119,5.199h3.119c.399,0,.56.16.56.56v.08c0,.4-.16.561-.56.561h-3.119c-3.52,0-5.119,1.6-5.119,5.198v23.116c0,3.6,1.6,5.199,5.119,5.199s5.119-1.6,5.119-5.199v-4.479c0-.48.159-.641.64-.641s.64.16.64.641v4.479c0,4.239-2.159,6.399-6.398,6.399s-6.399-2.16-6.399-6.399Z"/>
      <path class="st2" d="M764.205,267.012v-27.755c0-1.96-.6-3.039-2.279-4.119l-3.88-2.52-5.279,34.474c-.079.4-.239.561-.6.561-.52,0-.72-.24-.64-.76l5.359-35.034-.88-.561c-1.84-1.199-3.319-2.56-3.319-5.559v-13.598c0-.44.199-.641.64-.641s.64.2.64.641v13.598c0,2.439,1.08,3.439,2.76,4.519l3.6,2.36,4.239-20.597c.079-.36.239-.521.52-.521.36,0,.84.16.72.801l-4.279,21.076,1.12.72c2.079,1.359,2.839,2.8,2.839,5.159v27.755c0,.44-.199.641-.64.641s-.64-.2-.64-.641h-.001Z"/>
    </g>
  </g>
</svg>