<?xml version="1.0" encoding="UTF-8"?>
<svg id="Layer_1" xmlns="http://www.w3.org/2000/svg" version="1.1" viewBox="0 0 1920 690">
  <!-- Generator: Adobe Illustrator 29.7.1, SVG Export Plug-In . SVG Version: 2.1.1 Build 8)  -->
  <defs>
    <style>
      .st0 {
        fill: #f3ebdc;
      }

      .st1 {
        fill: #aeafaf;
      }

      .st2 {
        fill: #e7edf2;
        font-family: sans-serif, NotoSansMono-Regular, 'Noto Sans Mono';
        font-size: 30px;
      }

      .st2, .st3 {
        isolation: isolate;
      }

      .st4 {
        fill: #99453d;
      }

      .st5 {
        fill: #253947;
      }

      .st6 {
        fill: #dc583e;
      }
    </style>
  </defs>
  <g>
    <path class="st1" d="M51.631,508.579l48.179-27.86c7.642-4.419,18.577-4.812,25.298-.914l.32.186c4.801,2.784,5.824,6.456,3.426,10.067l-9.264,14.254,201.164,116.655c4.961,2.877,6.138,6.83,3.904,10.346l-33.259,50.557c-1.028,1.521-2.873,3.145-5.199,4.489-7.642,4.42-18.257,4.998-25.62.729l-207.406-120.274-10.798,6.244c-7.31,4.228-17.926,4.806-24.968.722l-.32-.186c-4.96-2.876-5.982-6.548-3.585-10.159l33.261-50.558c.861-1.425,2.873-3.144,4.867-4.297h0Z"/>
    <path class="st1" d="M368.822,641.917c-23.923,13.834-50.503,14.006-72.589,1.198l-92.5-53.641c-9.121-5.289-14.804-11.086-15.581-17.309-10.426-.274-20.427-3.572-30.829-9.604l-39.689-23.016c-16.323-9.466-20.751-18.769-14.581-28.082l33.261-50.557c2.915-4.467,8.945-9.436,16.754-13.951,24.089-13.93,48.421-15.212,72.587-1.198l15.684,9.095c4.961,2.877,6.137,6.83,3.905,10.346l-22.458,34.116c5.938,2.867,8.904,1.894,16.381-2.43l12.958-7.493c7.31-4.228,18.245-4.62,24.968-.722l.32.186c4.801,2.784,5.811,6.834,3.584,10.159l-16.288,24.804,75.376,43.711,15.428-23.378c1.027-1.521,3.039-3.241,5.199-4.489,7.643-4.42,18.578-4.812,25.619-.729l17.924,10.394c15.203,8.816,19.601,19.062,13.087,28.946l-33.094,50.462c-3.083,4.562-8.114,8.955-15.425,13.182h-.001Z"/>
    <path class="st1" d="M477.586,575.687c-7.477,4.323-18.258,4.997-25.62.728l-4-2.319-18.178,27.749c-1.027,1.521-2.541,2.952-4.866,4.297-6.973,3.846-17.458,5.461-25.46.821-.8-.464-1.601-.929-2.234-1.488l-112.679-90.163c-14.566,1.75-30.383,1.814-45.586-7.002l-54.412-31.554c-5.121-2.97-6.137-6.83-3.738-10.441l33.259-50.558c1.027-1.521,3.04-3.24,5.034-4.393,7.476-4.323,18.736-4.72,25.618-.729l2.401,1.393,16.121-24.708c.861-1.425,2.542-2.952,4.702-4.2.997-.577,2.152-1.061,3.311-1.544,7.599-3.098,16.399-2.997,22.481.53.8.464,1.6.928,2.232,1.487l61.972,54.985c18.493-2.167,31.448.535,43.131,7.311l111.064,64.406c4.961,2.877,6.304,6.734,3.738,10.441l-32.921,50.176-.173.285c-1.193,1.617-2.873,3.145-5.198,4.489h.001Z"/>
    <path class="st1" d="M293.523,368.701l48.179-27.86c7.642-4.419,18.577-4.812,25.298-.915l.32.187c4.801,2.784,5.823,6.456,3.426,10.067l-9.264,14.254,201.164,116.654c4.961,2.877,6.138,6.831,3.904,10.346l-33.259,50.558c-1.028,1.521-2.873,3.145-5.199,4.489-7.643,4.419-18.258,4.997-25.62.728l-207.406-120.274-10.798,6.245c-7.311,4.227-17.926,4.805-24.968.722l-.32-.186c-4.96-2.877-5.982-6.549-3.585-10.16l33.26-50.558c.862-1.424,2.874-3.144,4.868-4.296h0Z"/>
  </g>
  <g>
    <path class="st5" d="M5.094,467.176l-.319-.186c-7.042-4.084-6.028-10.23,1.281-14.457l48.179-27.86c4.153-2.402,9.901-3.687,13.815-3.726l64.581-.646c3.913-.039,8.444,1.048,11.483,2.812l.32.186c7.041,4.083,5.697,10.423-1.612,14.649l-10.467,6.053,207.405,120.274c7.362,4.269,6.017,10.607-1.293,14.835-3.987,2.306-9.735,3.59-13.648,3.63l-64.582.646c-2.936.028-8.45-.86-11.971-2.901l-191.402-110.994-40.119.401c-2.609.025-8.29-.767-11.651-2.716h0Z"/>
    <path class="st5" d="M405.337,482.242l17.924,10.394c22.086,12.808,21.254,28.487-2.171,42.033-11.962,6.917-26.097,10.457-37.187,10.567l-64.582.646c-11.415.115-24.52-3.059-35.401-9.369l-92.5-53.641c-9.122-5.29-14.804-11.087-15.582-17.31-10.425-.273-20.427-3.572-30.829-9.604l-39.689-23.016c-24.484-14.198-22.082-28.006,2.173-42.032,12.46-7.205,25.303-11.109,37.37-11.23l64.581-.647c12.069-.12,23.696,3.352,35.218,10.033l15.684,9.095c7.361,4.269,6.016,10.607-1.294,14.835-3.987,2.305-9.409,3.587-13.648,3.629l-47.947.48,21.925,12.714,65.233-.653c3.915-.038,8.444,1.049,11.485,2.812l.32.186c7.041,4.083,5.695,10.422-1.282,14.457l-12.958,7.493c-8.473,4.899-8.067,7.444.735,12.549l30.727,17.818,1.495-.865c3.987-2.306,9.409-3.587,13.65-3.629l64.58-.646c2.609-.026,8.77,1.045,11.971,2.901h-.001Z"/>
    <path class="st5" d="M420.082,389.197l111.064,64.406c7.362,4.269,5.85,10.703-1.294,14.834-3.987,2.306-10.388,3.598-13.648,3.63l-52.187.522,15.893,12.68.32.187c5.239,4.385,3.271,9.785-3.208,13.532-3.156,1.825-8.75,3.392-13.644,3.44l-64.581.646c-3.587.036-8.609-.952-12.131-2.994-.641-.371-1.279-.742-1.754-1.209l-111.891-89.322-13.533.041c-9.458.095-21.959-1.573-32.841-7.885l-54.412-31.553c-7.201-4.177-6.183-10.512,1.294-14.835,3.987-2.306,10.388-3.598,13.648-3.63l44.685-.447-12.359-11.016c-4.913-4.389-3.278-9.598,3.035-13.248,3.821-2.21,10.394-3.786,14.308-3.825l64.582-.646c5.217-.053,10.067,1.221,13.551,4.395l61.338,54.426,12.067-.121c12.395-.124,22.575,2.701,31.697,7.991h.001Z"/>
    <path class="st5" d="M246.986,327.297l-.319-.186c-7.042-4.083-6.028-10.229,1.281-14.457l48.179-27.86c4.153-2.401,9.901-3.686,13.814-3.726l64.582-.646c3.914-.039,8.443,1.049,11.483,2.812l.32.187c7.041,4.083,5.697,10.422-1.612,14.649l-10.467,6.053,207.405,120.274c7.362,4.27,6.017,10.608-1.294,14.835-3.986,2.306-9.734,3.591-13.648,3.63l-64.582.646c-2.936.029-8.449-.859-11.97-2.901l-191.402-110.995-40.119.402c-2.61.025-8.29-.768-11.651-2.717h0Z"/>
  </g>
  <g>
    <path class="st6" d="M124.915,338.719l.319.186c7.042,4.084,6.029,10.23-1.613,14.649l-10.466,6.053,207.406,120.274c7.361,4.269,6.348,10.415-1.295,14.834-7.643,4.42-18.258,4.998-25.619.729l-207.406-120.275-10.799,6.245c-7.31,4.227-17.926,4.805-24.968.722l-.319-.186c-7.042-4.084-6.028-10.23,1.281-14.457l48.179-27.86c7.643-4.419,18.258-4.997,25.3-.914h0Z"/>
    <path class="st6" d="M329.301,451.473l-92.5-53.641c-9.122-5.29-14.804-11.087-15.582-17.31-10.425-.273-20.427-3.572-30.829-9.604l-39.689-23.016c-24.484-14.198-22.082-28.006,2.173-42.032,24.089-13.931,48.103-15.397,72.587-1.198l15.684,9.094c7.363,4.27,6.35,10.417-1.293,14.836-7.642,4.419-18.258,4.997-25.621.728l-15.684-9.095c-10.4-6.032-12.031-6.016-21.667-.443s-9.667,6.516.735,12.549l39.689,23.016c10.402,6.031,12.033,6.016,21.669.443l12.958-7.493c7.311-4.228,17.926-4.806,24.967-.723l.32.187c7.042,4.083,6.028,10.229-1.281,14.457l-12.959,7.493c-8.473,4.899-8.385,7.259.736,12.549l92.5,53.642c9.123,5.289,13.196,5.343,21.669.443s8.386-7.259-.735-12.549l-17.924-10.394c-7.361-4.27-6.349-10.416,1.293-14.836,7.643-4.419,18.259-4.997,25.62-.728l17.924,10.395c22.085,12.807,21.585,28.294-2.172,42.031-23.923,13.834-50.503,14.006-72.588,1.199h0Z"/>
    <path class="st6" d="M485.033,384.772l-111.065-64.406c-4.801-2.784-6.746-3.143-12.808-2.231l-3.6.414,103.149,82.327.32.187c5.238,4.384,3.271,9.785-3.209,13.532-7.476,4.322-18.092,4.9-25.613.539-1.439-.835-2.233-1.487-3.662-2.701l-110.937-88.575,3.44-.507c-15.392,2.042-32.537,2.875-49.021-6.685l-54.412-31.553c-7.201-4.177-6.183-10.512,1.294-14.835,7.476-4.323,18.418-4.905,25.619-.729l54.412,31.553c5.121,2.97,7.885,3.227,16.562,2.101l2.622-.403-53.241-47.614c-4.913-4.389-3.111-9.693,3.035-13.248,6.812-3.938,20.731-5.872,27.86.571l61.971,54.984-2.296.401c19.649-2.652,32.943-.33,45.426,6.908l111.065,64.407c7.361,4.269,6.182,10.511-1.295,14.834-7.476,4.323-18.257,4.998-25.618.729h.002,0Z"/>
    <path class="st6" d="M366.806,198.841l.32.186c7.041,4.083,6.029,10.229-1.613,14.649l-10.467,6.052,207.406,120.275c7.361,4.269,6.348,10.415-1.294,14.834-7.643,4.419-18.258,4.997-25.619.729l-207.406-120.274-10.799,6.244c-7.31,4.228-17.926,4.806-24.968.722l-.319-.186c-7.042-4.083-6.028-10.229,1.281-14.457l48.179-27.86c7.643-4.419,18.258-4.997,25.299-.913h0Z"/>
  </g>
  <g>
    <path class="st4" d="M125.616,255.602l.318.186c6.082,3.526,4.957,8.069-.691,11.336l-13.789,7.974,209.808,121.667c5.761,3.341,5.774,7.967-.372,11.521s-14.135,3.539-19.896.198l-209.807-121.667-14.121,8.166c-5.648,3.267-13.643,3.441-19.245.192l-.319-.186c-5.602-3.248-5.289-7.877.359-11.144l48.179-27.859c5.648-3.267,13.495-3.911,19.577-.385h0Z"/>
    <path class="st4" d="M336.648,364.513l-92.5-53.642c-8.162-4.732-15.303-10.798-15.078-17.786-11.748.306-21.891-3.651-31.334-9.127l-39.689-23.016c-22.244-12.899-21.842-25.366,1.251-38.72s44.62-13.568,66.864-.669l15.684,9.095c5.922,3.434,5.775,7.967-.372,11.521-6.146,3.555-13.974,3.633-19.896.199l-15.684-9.095c-11.521-6.682-15.763-6.64-27.392.085s-11.708,9.181-.187,15.862l39.689,23.016c11.522,6.682,15.764,6.64,27.393-.086l12.958-7.493c5.814-3.362,13.643-3.44,19.244-.192l.32.186c5.602,3.248,5.455,7.781-.359,11.144l-12.959,7.493c-10.467,6.053-10.589,9.83-.186,15.862l92.5,53.642c10.402,6.032,16.926,5.967,27.393-.086,10.467-6.052,10.588-9.83.186-15.861l-17.924-10.395c-5.921-3.434-5.775-7.967.371-11.521s13.977-3.633,19.896-.199l17.924,10.395c20.965,12.157,20.514,26.134-1.25,38.719s-45.898,12.827-66.863.67h0Z"/>
    <path class="st4" d="M492.379,297.812l-111.065-64.406c-5.441-3.155-8.358-3.693-16.383-2.574l-10.48,1.427,106.641,85.314c4.291,3.45,3.018,7.522-1.967,10.404-5.15,2.979-12.848,4.094-18.77.66-.801-.465-1.44-.836-2.074-1.396l-114.119-90.998c-13.588,1.74-29.582,2.278-44.785-6.538l-54.412-31.554c-5.762-3.341-5.609-8.062.372-11.521,5.98-3.458,14.134-3.54,19.896-.199l54.412,31.554c6.241,3.619,10.643,3.67,20.304,2.346l9.169-1.225-56.566-50.696c-3.958-3.643-2.537-7.244,2.114-9.934,7.31-4.228,16.11-4.127,21.497.729l62.918,55.92.492-.1c17.848-2.35,30.168-.207,42.011,6.66l111.065,64.406c5.761,3.341,5.607,8.063-.373,11.521-5.98,3.459-14.135,3.54-19.896.199h-.001Z"/>
    <path class="st4" d="M367.507,115.723l.319.186c6.082,3.526,4.957,8.069-.691,11.336l-13.789,7.974,209.808,121.667c5.761,3.341,5.774,7.967-.372,11.521-6.147,3.555-14.136,3.54-19.896.199l-209.808-121.667-14.121,8.166c-5.648,3.267-13.642,3.44-19.244.192l-.319-.186c-5.602-3.248-5.289-7.877.359-11.144l48.179-27.86c5.648-3.267,13.495-3.911,19.576-.385h-.001Z"/>
  </g>
  <g>
    <path class="st0" d="M124.72,174.885l.319.186c1.602.929,1.577,1.684-.417,2.837l-21.265,12.297,217.009,125.843c1.92,1.113,1.896,1.869-.098,3.022s-3.299,1.165-5.219.052l-217.009-125.843-21.597,12.489c-1.662.961-2.966.974-4.567.045l-.319-.186c-1.601-.928-1.576-1.683.086-2.644l48.178-27.86c1.994-1.152,3.298-1.166,4.898-.238h0Z"/>
    <path class="st0" d="M350.703,275.151l-92.5-53.642c-10.883-6.311-17.507-13.23-6.112-22.785l-.641-.371c-16.195,6.771-26.855,3.667-39.658-3.757l-39.689-23.016c-18.243-10.58-17.963-19.268.976-30.22s33.943-11.103,52.187-.522l15.684,9.095c1.922,1.114,1.896,1.869-.098,3.021-1.993,1.153-3.297,1.167-5.219.053l-15.684-9.095c-15.683-9.095-26.119-8.99-42.068.232s-16.144,15.267-.461,24.361l39.689,23.016c15.684,9.095,26.121,8.99,42.069-.232l12.958-7.493c1.662-.961,2.967-.974,4.566-.046l.32.186c1.601.928,1.576,1.684-.086,2.645l-12.958,7.493c-14.62,8.454-14.863,16.009-.459,24.361l92.5,53.642c14.403,8.352,27.45,8.222,42.069-.232s14.863-16.01.46-24.361l-17.924-10.395c-1.921-1.114-1.896-1.869.098-3.021,1.994-1.153,3.298-1.167,5.219-.053l17.924,10.395c16.964,9.837,16.636,20.036-.975,30.22s-35.224,10.359-52.188.522h.001Z"/>
    <path class="st0" d="M506.435,208.45l-111.064-64.406c-7.842-4.548-14.654-5.612-25.953-4.083l-26.197,3.472,116.021,92.68c1.269,1.119,1.245,1.875-.251,2.74-2.159,1.248-3.951,1.172-5.699-.227l-117.93-94.171-5.895.814c-12.444,1.636-24.031,2.034-36.034-4.926l-54.412-31.554c-1.761-1.021-1.729-1.965.098-3.021s3.458-1.073,5.219-.053l54.412,31.554c9.762,5.661,18.248,5.388,29.547,3.858l24.395-3.171-64.81-57.979c-1.107-1.026-1.083-1.782.08-2.454,1.495-.865,4.129-1.646,6.19.126l66.563,59.188,7.532-1.02c14.08-1.84,22.997-.324,32.439,5.151l111.065,64.406c1.76,1.021,1.73,1.965-.098,3.022-1.827,1.057-3.459,1.072-5.219.052v.002h.001Z"/>
    <path class="st0" d="M366.612,35.007l.319.186c1.602.929,1.576,1.684-.417,2.837l-21.265,12.297,217.008,125.843c1.92,1.113,1.896,1.869-.097,3.022-1.994,1.152-3.299,1.165-5.219.052l-217.009-125.843-21.598,12.488c-1.661.961-2.965.975-4.566.046l-.32-.186c-1.6-.929-1.575-1.683.086-2.644l48.179-27.86c1.993-1.153,3.298-1.167,4.898-.238h0Z"/>
  </g>
  <g class="st3">
    <text class="st2" transform="translate(650.558 507.19)"><tspan x="0" y="0">lcfi00</tspan></text>
  </g>
  <g class="st3">
    <text class="st2" transform="translate(650.558 427.554)"><tspan x="0" y="0">lcfi01</tspan></text>
  </g>
  <g class="st3">
    <text class="st2" transform="translate(650.558 347.917)"><tspan x="0" y="0">lcfi02</tspan></text>
  </g>
  <g class="st3">
    <text class="st2" transform="translate(650.558 268.281)"><tspan x="0" y="0">lcfi03</tspan></text>
  </g>
  <g class="st3">
    <text class="st2" transform="translate(650.558 188.644)"><tspan x="0" y="0">lcfi04</tspan></text>
  </g>
</svg>